<?xml version="1.0" standalone="no"?><!DOCTYPE svg PUBLIC "-//W3C//DTD SVG 1.1//EN" "http://www.w3.org/Graphics/SVG/1.1/DTD/svg11.dtd"><svg t="1512091989646" class="icon" style="" viewBox="0 0 1024 1024" version="1.1" xmlns="http://www.w3.org/2000/svg" p-id="19351" xmlns:xlink="http://www.w3.org/1999/xlink" width="128" height="128"><defs><style type="text/css"></style></defs><path d="M384.062445 932.880086l13.787882-1.198946c0.699385 5.49517 2.198068 10.091131 4.59596 13.588057 2.397892 3.496927 6.094643 6.39438 11.090253 8.592448 4.995609 2.198068 10.690604 3.297102 16.985072 3.297102 5.595082 0 10.49078-0.799297 14.787003-2.497804 4.296224-1.698507 7.393502-3.896575 9.491658-6.794029 2.098156-2.897453 3.097278-5.994731 3.097278-9.491658s-0.999122-6.494292-2.997366-9.092009c-1.998244-2.597717-5.295346-4.795785-9.891306-6.494292-2.997366-1.198946-9.491658-2.897453-19.682701-5.395258-10.191043-2.397892-17.284808-4.695873-21.281296-6.893941-5.295346-2.797541-9.191921-6.194556-11.789638-10.290955-2.597717-4.0964-3.896575-8.69236-3.896575-13.787882 0-5.595082 1.598595-10.790516 4.695873-15.586301 3.19719-4.795785 7.793151-8.492536 13.887794-10.990341 6.094643-2.497805 12.78876-3.796663 20.282174-3.796663 8.192799 0 15.386477 1.298858 21.680944 3.996488 6.294468 2.597717 11.090253 6.494292 14.387355 11.589814 3.397014 5.095522 5.195434 10.890428 5.395258 17.38472l-13.987706 1.099034c-0.699385-6.993853-3.297102-12.289199-7.593326-15.786125-4.296224-3.596839-10.790516-5.295346-19.18314-5.295346-8.792272 0-15.286565 1.598595-19.283052 4.895697-3.996487 3.19719-6.094643 7.093765-6.094643 11.689726 0 3.996487 1.398771 7.193677 4.296224 9.791394 2.797541 2.597717 10.191043 5.195434 21.980681 7.893063 11.88955 2.697629 19.982437 4.995609 24.478485 6.993853 6.39438 2.997366 11.190165 6.694116 14.187531 11.290077 3.097278 4.496048 4.595961 9.791394 4.59596 15.686213 0 5.894819-1.698507 11.389989-5.095521 16.585423-3.397014 5.195434-8.192799 9.191921-14.487267 12.089375-6.294468 2.897453-13.388233 4.296224-21.281296 4.296224-9.991219 0-18.383842-1.498683-25.077959-4.396137s-12.089375-7.29359-15.886037-13.088496c-3.996487-5.894819-5.994731-12.588936-6.194556-19.882525zM526.537223 968.249l-29.274271-110.402966h14.986828l16.785248 72.336423c1.798419 7.593326 3.397014 15.08674 4.695873 22.580154 2.797541-11.789638 4.496048-18.583667 4.995609-20.382086l20.981559-74.534491h17.584545l15.786125 55.850912c3.996487 13.887794 6.794029 26.876378 8.592448 39.065665 1.398771-6.993853 3.19719-14.986828 5.495171-23.978925l17.284808-70.937652h14.687091l-30.273392 110.402966h-14.087618L571.597619 884.222851c-1.998244-6.993853-3.097278-11.389989-3.496926-12.988584-1.198946 5.095522-2.198068 9.391746-3.19719 12.988584L541.524051 968.249h-14.986828z" fill="#FFFFFF" p-id="19352"></path><path d="M512.149868 0.799297C229.598205 0.799297 0.599473 229.798029 0.599473 512.349693v0.099912c0 282.451751 228.998732 511.550395 511.550395 511.550395s511.550395-228.998732 511.550395-511.550395v-0.099912c0-282.551664-228.998732-511.550395-511.550395-511.550396z" fill="#039AD6" p-id="19353"></path><path d="M804.792663 209.016294l-30.373305 173.847205-25.977169-25.977169-73.035808 73.035809-15.886038 15.886037-9.391745 9.391746-12.78876 12.888672-10.390867 10.390867-9.891307 9.791395-1.198946 1.198946-91.519563-91.519563 1.198946-1.198946 9.791395-9.891307 10.390867-10.390867 12.888672-12.78876 9.391746-9.391745 15.886037-15.886038 72.935896-73.035809-25.877256-25.977168zM374.071226 455.199922l-9.391745-9.291833-15.886038-15.886038-73.13572-73.135721-25.977169 25.877257-30.373305-173.847205 173.847205 30.373305-25.977168 25.977168 73.235632 73.135721 15.886038 15.886038 9.291833 9.391745 12.888672 12.888672 10.390868 10.390868 9.791394 9.791394 0.299737 0.299736-91.519563 91.519563-0.299737-0.199824-9.791394-9.891307-10.390867-10.390867zM218.907601 795.001268l30.373304-173.847204 25.977169 25.977168 73.635281-73.635281 15.886038-15.886038 9.391746-9.391745 12.78876-12.888672 10.390867-10.390868 9.891306-9.791394 0.099913-0.099912 91.519562 91.519563-0.099912 0.099912-9.791394 9.891306-10.390867 10.390868-12.888672 12.78876-9.391746 9.391745-15.886038 15.886038-73.635281 73.635281 25.977168 25.977169zM631.644843 764.627964l25.877257-25.977169-73.635282-73.635281-15.886037-15.886038-9.291834-9.391745-12.888672-12.888673-10.390867-10.390867-9.891307-9.791394-0.099912-0.099912 91.619475-91.619475 0.099912 0.099912 9.791395 9.891306 10.390867 10.390868 12.888672 12.888672 9.391746 9.291833 15.886037 15.886038 73.635282 73.635281 25.977168-25.877256 30.373305 173.847204z" fill="#FFFFFF" p-id="19354"></path><path d="M411.138648 968.348912V857.945946h48.956971c9.891306 0 17.284808 0.999122 22.480242 2.997366 5.095522 1.998244 9.191921 5.49517 12.289199 10.490779 3.097278 4.995609 4.595961 10.590692 4.595961 16.685335 0 7.793151-2.497805 14.487267-7.593327 19.782613-5.095522 5.395258-12.888672 8.792272-23.479363 10.290955 3.896575 1.898332 6.794029 3.696751 8.792272 5.495171 4.296224 3.896575 8.292711 8.792272 12.089375 14.687091l19.183139 30.073568h-18.383842l-14.587179-22.979803c-4.296224-6.594204-7.793151-11.689726-10.590692-15.186652s-5.195434-5.994731-7.393502-7.393502c-2.198068-1.398771-4.396136-2.397892-6.694116-2.897453-1.698507-0.399649-4.396136-0.499561-8.092887-0.499561h-16.985072v49.056883h-14.587179z m14.687091-61.645819h31.372427c6.694116 0 11.88955-0.699385 15.686213-2.098156 3.796663-1.398771 6.594204-3.596839 8.592448-6.594204 1.998244-2.997366 2.897453-6.294468 2.897453-9.891307 0-5.195434-1.898332-9.491658-5.694994-12.888672-3.796663-3.397014-9.791394-5.095522-17.984194-5.095521h-34.969265v36.56786zM560.707191 968.348912v-97.414382h-36.368036v-12.988584h87.523075v12.988584h-36.56786v97.414382h-14.587179z" fill="#FFFFFF" p-id="19355"></path></svg>